<svg width="61" height="10" viewBox="0 0 61 10" fill="none" xmlns="http://www.w3.org/2000/svg">
<path d="M1.78125 7.81641H5.6543V9H0.298828V0.46875H1.78125V7.81641ZM9.44531 9.11719C8.54297 9.11719 7.81055 8.83398 7.24805 8.26758C6.68945 7.69727 6.41016 6.93945 6.41016 5.99414V5.81836C6.41016 5.18555 6.53125 4.62109 6.77344 4.125C7.01953 3.625 7.36328 3.23633 7.80469 2.95898C8.24609 2.68164 8.73828 2.54297 9.28125 2.54297C10.1445 2.54297 10.8105 2.81836 11.2793 3.36914C11.752 3.91992 11.9883 4.69922 11.9883 5.70703V6.28125H7.8457C7.88867 6.80469 8.0625 7.21875 8.36719 7.52344C8.67578 7.82812 9.0625 7.98047 9.52734 7.98047C10.1797 7.98047 10.7109 7.7168 11.1211 7.18945L11.8887 7.92188C11.6348 8.30078 11.2949 8.5957 10.8691 8.80664C10.4473 9.01367 9.97266 9.11719 9.44531 9.11719ZM9.27539 3.68555C8.88477 3.68555 8.56836 3.82227 8.32617 4.0957C8.08789 4.36914 7.93555 4.75 7.86914 5.23828H10.582V5.13281C10.5508 4.65625 10.4238 4.29688 10.2012 4.05469C9.97852 3.80859 9.66992 3.68555 9.27539 3.68555ZM16.8867 9C16.8242 8.87891 16.7695 8.68164 16.7227 8.4082C16.2695 8.88086 15.7148 9.11719 15.0586 9.11719C14.4219 9.11719 13.9023 8.93555 13.5 8.57227C13.0977 8.20898 12.8965 7.75977 12.8965 7.22461C12.8965 6.54883 13.1465 6.03125 13.6465 5.67188C14.1504 5.30859 14.8691 5.12695 15.8027 5.12695H16.6758V4.71094C16.6758 4.38281 16.584 4.12109 16.4004 3.92578C16.2168 3.72656 15.9375 3.62695 15.5625 3.62695C15.2383 3.62695 14.9727 3.70898 14.7656 3.87305C14.5586 4.0332 14.4551 4.23828 14.4551 4.48828H13.0312C13.0312 4.14062 13.1465 3.81641 13.377 3.51562C13.6074 3.21094 13.9199 2.97266 14.3145 2.80078C14.7129 2.62891 15.1562 2.54297 15.6445 2.54297C16.3867 2.54297 16.9785 2.73047 17.4199 3.10547C17.8613 3.47656 18.0879 4 18.0996 4.67578V7.53516C18.0996 8.10547 18.1797 8.56055 18.3398 8.90039V9H16.8867ZM15.3223 7.97461C15.6035 7.97461 15.8672 7.90625 16.1133 7.76953C16.3633 7.63281 16.5508 7.44922 16.6758 7.21875V6.02344H15.9082C15.3809 6.02344 14.9844 6.11523 14.7188 6.29883C14.4531 6.48242 14.3203 6.74219 14.3203 7.07812C14.3203 7.35156 14.4102 7.57031 14.5898 7.73438C14.7734 7.89453 15.0176 7.97461 15.3223 7.97461ZM22.9102 3.96094C22.7227 3.92969 22.5293 3.91406 22.3301 3.91406C21.6777 3.91406 21.2383 4.16406 21.0117 4.66406V9H19.5879V2.66016H20.9473L20.9824 3.36914C21.3262 2.81836 21.8027 2.54297 22.4121 2.54297C22.6152 2.54297 22.7832 2.57031 22.916 2.625L22.9102 3.96094ZM25.1309 2.66016L25.1719 3.39258C25.6406 2.82617 26.2559 2.54297 27.0176 2.54297C28.3379 2.54297 29.0098 3.29883 29.0332 4.81055V9H27.6094V4.89258C27.6094 4.49023 27.5215 4.19336 27.3457 4.00195C27.1738 3.80664 26.8906 3.70898 26.4961 3.70898C25.9219 3.70898 25.4941 3.96875 25.2129 4.48828V9H23.7891V2.66016H25.1309ZM34.8164 2.66016L34.8574 3.32227C35.3027 2.80273 35.9121 2.54297 36.6855 2.54297C37.5332 2.54297 38.1133 2.86719 38.4258 3.51562C38.8867 2.86719 39.5352 2.54297 40.3711 2.54297C41.0703 2.54297 41.5898 2.73633 41.9297 3.12305C42.2734 3.50977 42.4492 4.08008 42.457 4.83398V9H41.0332V4.875C41.0332 4.47266 40.9453 4.17773 40.7695 3.99023C40.5938 3.80273 40.3027 3.70898 39.8965 3.70898C39.5723 3.70898 39.3066 3.79688 39.0996 3.97266C38.8965 4.14453 38.7539 4.37109 38.6719 4.65234L38.6777 9H37.2539V4.82812C37.2344 4.08203 36.8535 3.70898 36.1113 3.70898C35.541 3.70898 35.1367 3.94141 34.8984 4.40625V9H33.4746V2.66016H34.8164ZM43.6523 5.77148C43.6523 5.15039 43.7754 4.5918 44.0215 4.0957C44.2676 3.5957 44.6133 3.21289 45.0586 2.94727C45.5039 2.67773 46.0156 2.54297 46.5938 2.54297C47.4492 2.54297 48.1426 2.81836 48.6738 3.36914C49.209 3.91992 49.498 4.65039 49.541 5.56055L49.5469 5.89453C49.5469 6.51953 49.4258 7.07812 49.1836 7.57031C48.9453 8.0625 48.6016 8.44336 48.1523 8.71289C47.707 8.98242 47.1914 9.11719 46.6055 9.11719C45.7109 9.11719 44.9941 8.82031 44.4551 8.22656C43.9199 7.62891 43.6523 6.83398 43.6523 5.8418V5.77148ZM45.0762 5.89453C45.0762 6.54688 45.2109 7.05859 45.4805 7.42969C45.75 7.79688 46.125 7.98047 46.6055 7.98047C47.0859 7.98047 47.459 7.79297 47.7246 7.41797C47.9941 7.04297 48.1289 6.49414 48.1289 5.77148C48.1289 5.13086 47.9902 4.62305 47.7129 4.24805C47.4395 3.87305 47.0664 3.68555 46.5938 3.68555C46.1289 3.68555 45.7598 3.87109 45.4863 4.24219C45.2129 4.60938 45.0762 5.16016 45.0762 5.89453ZM54.0703 3.96094C53.8828 3.92969 53.6895 3.91406 53.4902 3.91406C52.8379 3.91406 52.3984 4.16406 52.1719 4.66406V9H50.748V2.66016H52.1074L52.1426 3.36914C52.4863 2.81836 52.9629 2.54297 53.5723 2.54297C53.7754 2.54297 53.9434 2.57031 54.0762 2.625L54.0703 3.96094ZM57.6445 9.11719C56.7422 9.11719 56.0098 8.83398 55.4473 8.26758C54.8887 7.69727 54.6094 6.93945 54.6094 5.99414V5.81836C54.6094 5.18555 54.7305 4.62109 54.9727 4.125C55.2188 3.625 55.5625 3.23633 56.0039 2.95898C56.4453 2.68164 56.9375 2.54297 57.4805 2.54297C58.3438 2.54297 59.0098 2.81836 59.4785 3.36914C59.9512 3.91992 60.1875 4.69922 60.1875 5.70703V6.28125H56.0449C56.0879 6.80469 56.2617 7.21875 56.5664 7.52344C56.875 7.82812 57.2617 7.98047 57.7266 7.98047C58.3789 7.98047 58.9102 7.7168 59.3203 7.18945L60.0879 7.92188C59.834 8.30078 59.4941 8.5957 59.0684 8.80664C58.6465 9.01367 58.1719 9.11719 57.6445 9.11719ZM57.4746 3.68555C57.084 3.68555 56.7676 3.82227 56.5254 4.0957C56.2871 4.36914 56.1348 4.75 56.0684 5.23828H58.7812V5.13281C58.75 4.65625 58.623 4.29688 58.4004 4.05469C58.1777 3.80859 57.8691 3.68555 57.4746 3.68555Z" fill="white"/>
</svg>
